# File created by Blade
# Date/Time:  Thu Jan 22 18:06:37 2015
#---------------------------------------------------------
:version 1.10
:name HOM
:units
  mass 1.0
  length 1.000000
  angle deg
:documentation
     Acclaim Skeleton File
:root
   axis xyz
   order TX TY TZ RX RY RZ
   position 0.000000 0.000000 0.000000
   orientation 0 0 0
:bonedata
   begin
      id 1
      name RightUpLeg_dum
      direction -1.000000 0.000000 0.000000
      length 4.478084
      axis 0.0 0.0 0.0 xyz
   end
   begin
      id 2
      name LeftUpLeg_dum
      direction 1.000000 0.000000 0.000000
      length 4.478084
      axis 0.0 0.0 0.0 xyz
   end
   begin
      id 3
      name Spine_dum
      direction 0.000000 1.000000 0.000000
      length 6.068208
      axis 0.0 0.0 0.0 xyz
   end
   begin
      id 4
      name RightUpLeg
      direction 0.000000 -1.000000 0.000000
      length 16.405774
      axis 0.0 0.0 0.0 xyz
      dof rx ry rz
   end
   begin
      id 5
      name RightLeg
      direction 0.000000 -1.000000 0.000000
      length 14.644143
      axis 0.0 0.0 0.0 xyz
      dof rx ry rz
   end
   begin
      id 6
      name RightFoot
      direction 0.000000 -0.258819 0.965926
      length 5.806150
      axis 15.0 0.0 0.0 xyz
      dof rx ry rz
   end
   begin
      id 7
      name RightToeBase
      direction 0.000000 0.000000 1.000000
      length 2.952750
      axis 0.0 0.0 0.0 xyz
      dof rx ry rz
   end
   begin
      id 8
      name LeftUpLeg
      direction 0.000000 -1.000000 0.000000
      length 16.405774
      axis 0.0 0.0 0.0 xyz
      dof rx ry rz
   end
   begin
      id 9
      name LeftLeg
      direction 0.000000 -1.000000 0.000000
      length 14.644143
      axis 0.0 0.0 0.0 xyz
      dof rx ry rz
   end
   begin
      id 10
      name LeftFoot
      direction 0.000000 -0.258819 0.965926
      length 5.806150
      axis 15.0 0.0 0.0 xyz
      dof rx ry rz
   end
   begin
      id 11
      name LeftToeBase
      direction 0.000000 0.000000 1.000000
      length 2.952750
      axis 0.0 0.0 0.0 xyz
      dof rx ry rz
   end
   begin
      id 12
      name Spine
      direction 0.000000 1.000000 0.000000
      length 0.000000
      axis 0.0 0.0 0.0 xyz
      dof rx ry rz
   end
   begin
      id 13
      name Spine_dum1
      direction 0.000000 1.000000 0.000000
      length 10.013923
      axis 0.0 0.0 0.0 xyz
   end
   begin
      id 14
      name Spine_dum2
      direction 0.000000 1.000000 0.000000
      length 10.013923
      axis 0.0 0.0 0.0 xyz
   end
   begin
      id 15
      name Spine_dum3
      direction 0.000000 1.000000 0.000000
      length 15.777476
      axis 0.0 0.0 0.0 xyz
   end
   begin
      id 16
      name RightShoulder
      direction -1.000000 0.000000 0.000000
      length 7.190220
      axis 0.0 0.0 90.0 xyz
      dof rx ry rz
   end
   begin
      id 17
      name RightArm
      direction -1.000000 0.000000 0.000000
      length 10.177469
      axis 0.0 0.0 90.0 xyz
      dof rx ry rz
   end
   begin
      id 18
      name RightForeArm
      direction -1.000000 0.000000 0.000000
      length 8.392114
      axis 0.0 0.0 90.0 xyz
      dof ry rz rx
   end
   begin
      id 19
      name RightHand
      direction -1.000000 0.000000 0.000000
      length 0.000000
      axis 0.0 0.0 90.0 xyz
      dof rx ry rz
   end
   begin
      id 20
      name RightHand_dum1
      direction -1.000000 0.000000 0.000000
      length 3.937000
      axis 0.0 0.0 90.0 xyz
   end
   begin
      id 21
      name RightHand_dum2
      direction 0.000000 0.000000 0.000000
      length 0.000000
      axis 0.0 0.0 90.0 xyz
   end
   begin
      id 22
      name RightHandThumb1
      direction 0.000000 0.000000 1.000000
      length 3.937000
      axis 0.0 0.0 90.0 xyz
      dof rx rz ry
   end
   begin
      id 23
      name LeftShoulder
      direction 1.000000 0.000000 0.000000
      length 7.190220
      axis 0.0 0.0 -90.0 xyz
      dof rx ry rz
   end
   begin
      id 24
      name LeftArm
      direction 1.000000 0.000000 0.000000
      length 10.177469
      axis 0.0 0.0 -90.0 xyz
      dof rx ry rz
   end
   begin
      id 25
      name LeftForeArm
      direction 1.000000 0.000000 0.000000
      length 8.392114
      axis 0.0 0.0 -90.0 xyz
      dof ry rz rx
   end
   begin
      id 26
      name LeftHand
      direction 1.000000 0.000000 0.000000
      length 0.000000
      axis 0.0 0.0 -90.0 xyz
      dof rx ry rz
   end
   begin
      id 27
      name LeftHand_dum1
      direction 1.000000 0.000000 0.000000
      length 3.937000
      axis 0.0 0.0 -90.0 xyz
   end
   begin
      id 28
      name LeftHand_dum2
      direction 0.000000 0.000000 0.000000
      length 0.000000
      axis 0.0 0.0 -90.0 xyz
   end
   begin
      id 29
      name LeftHandThumb1
      direction 0.000000 0.000000 1.000000
      length 3.937000
      axis 0.0 0.0 -90.0 xyz
      dof rx rz ry
   end
   begin
      id 30
      name Head
      direction 0.000000 1.000000 0.000000
      length 4.527550
      axis 0.0 0.0 0.0 xyz
      dof rx ry rz
   end
:hierarchy
   begin
      root RightUpLeg_dum LeftUpLeg_dum Spine_dum
      RightUpLeg_dum RightUpLeg
      LeftUpLeg_dum LeftUpLeg
      Spine_dum Spine
      RightUpLeg RightLeg
      RightLeg RightFoot
      RightFoot RightToeBase
      LeftUpLeg LeftLeg
      LeftLeg LeftFoot
      LeftFoot LeftToeBase
      Spine Spine_dum1 Spine_dum2 Spine_dum3
      Spine_dum1 RightShoulder
      Spine_dum2 LeftShoulder
      Spine_dum3 Head
      RightShoulder RightArm
      RightArm RightForeArm
      RightForeArm RightHand
      RightHand RightHand_dum1 RightHand_dum2
      RightHand_dum2 RightHandThumb1
      LeftShoulder LeftArm
      LeftArm LeftForeArm
      LeftForeArm LeftHand
      LeftHand LeftHand_dum1 LeftHand_dum2
      LeftHand_dum2 LeftHandThumb1
   end

# File created by Blade
# Date/Time:  Thu Jan 22 18:06:27 2015
# Frame Rate: 120.000 fps
#------------------------------------------------------
:FULLY-SPECIFIED
:DEGREES
128
root -3.429321 33.077410 -1.267179 6.601981 4.102024 3.198681
RightUpLeg -1.362845 -6.734988 -0.858660
RightLeg 7.531652 -0.000000 -0.000000
RightFoot -16.554069 -8.811919 1.131370
RightToeBase 2.549862 -0.000000 -0.000000
LeftUpLeg -1.846982 -5.129135 -4.893213
LeftLeg 5.095052 -0.000000 -0.000000
LeftFoot -13.141335 5.851979 -6.993582
LeftToeBase 8.892490 -0.000000 -0.000000
Spine -8.764686 -4.034639 -2.406429
RightShoulder -17.591087 -11.090018 -26.003610
RightArm 16.737081 31.994330 45.535270
RightForeArm -7.519908 -0.000000 13.976765
RightHand 5.108342 -0.000000 8.739704
RightHandThumb1 -24.326973 -0.000000 -32.862282
LeftShoulder -21.731019 1.638242 28.166574
LeftArm 17.250049 -36.536167 -44.531631
LeftForeArm 4.985369 -0.000000 17.706324
LeftHand 1.603092 0.000000 17.688513
LeftHandThumb1 -26.253704 0.000000 33.147579
Head 6.945798 4.435391 -2.744040
129
root -3.385168 33.076613 -1.271991 6.594856 4.127956 3.170803
RightUpLeg -1.593156 -6.668442 -0.900464
RightLeg 8.031580 -0.000000 -0.000000
RightFoot -16.694779 -8.915210 1.192291
RightToeBase 2.407474 -0.000000 -0.000000
LeftUpLeg -1.847974 -5.121400 -4.940775
LeftLeg 5.099273 -0.000000 -0.000000
LeftFoot -13.145483 5.820398 -6.920628
LeftToeBase 8.884649 -0.000000 -0.000000
Spine -8.730868 -4.032369 -2.377332
RightShoulder -17.534689 -11.084503 -26.026622
RightArm 16.821003 31.925828 45.619048
RightForeArm -7.649492 -0.000000 14.060959
RightHand 5.261528 -0.000000 8.603765
RightHandThumb1 -24.326973 -0.000000 -32.862282
LeftShoulder -21.722938 1.607613 28.153765
LeftArm 17.224369 -36.526989 -44.607157
LeftForeArm 4.954741 -0.000000 17.800246
LeftHand 1.723324 -0.000000 18.256043
LeftHandThumb1 -26.253704 0.000000 33.147579
Head 7.019477 4.528814 -2.756472
130
root -3.343167 33.076237 -1.277665 6.587638 4.124423 3.155337
RightUpLeg -1.849286 -6.610679 -0.948130
RightLeg 8.566056 -0.000000 -0.000000
RightFoot -16.902130 -8.984387 1.389882
RightToeBase 2.442921 -0.000000 -0.000000
LeftUpLeg -1.863543 -5.011667 -4.999401
LeftLeg 5.133189 -0.000000 -0.000000
LeftFoot -13.139798 5.735411 -6.802616
LeftToeBase 8.811717 -0.000000 -0.000000
Spine -8.691413 -3.954636 -2.408695
RightShoulder -17.523269 -11.136618 -26.005400
RightArm 16.919988 31.911619 45.739721
RightForeArm -7.699026 -0.000000 14.179055
RightHand 5.125924 -0.000000 8.883292
RightHandThumb1 -24.326973 -0.000000 -32.862282
LeftShoulder -21.680709 1.616055 28.149690
LeftArm 17.281734 -36.566834 -44.734348
LeftForeArm 4.945502 -0.000000 17.902712
LeftHand 1.766189 -0.000000 18.770809
LeftHandThumb1 -26.253704 0.000000 33.147579
Head 7.108249 4.455016 -2.704674
131
root -3.298974 33.075463 -1.284602 6.589187 4.143833 3.156140
RightUpLeg -2.091109 -6.600936 -1.014252
RightLeg 9.053292 -0.000000 -0.000000
RightFoot -17.066780 -9.050311 1.496861
RightToeBase 2.343829 -0.000000 -0.000000
LeftUpLeg -1.894061 -4.956309 -5.077979
LeftLeg 5.176379 -0.000000 -0.000000
LeftFoot -13.123028 5.692841 -6.666432
LeftToeBase 8.717942 -0.000000 -0.000000
Spine -8.652762 -3.975880 -2.434898
RightShoulder -17.443835 -11.017406 -26.015304
RightArm 16.907280 31.719934 45.712710
RightForeArm -7.785539 -0.000000 14.241978
RightHand 5.213813 -0.000000 8.736613
RightHandThumb1 -24.326973 -0.000000 -32.862282
LeftShoulder -21.745004 1.772914 28.054482
LeftArm 17.526309 -36.639248 -44.910437
LeftForeArm 4.956129 -0.000000 17.975735
LeftHand 1.677378 -0.000000 19.139933
LeftHandThumb1 -26.253704 0.000000 33.147579
Head 7.174215 4.479178 -2.661844
132
root -3.256898 33.075142 -1.287769 6.527761 4.122775 3.111806
RightUpLeg -2.271232 -6.519815 -1.038924
RightLeg 9.532657 -0.000000 -0.000000
RightFoot -17.208622 -9.143351 1.653665
RightToeBase 2.292626 -0.000000 -0.000000
LeftUpLeg -1.843074 -4.854816 -5.114616
LeftLeg 5.189441 -0.000000 -0.000000
LeftFoot -13.134281 5.621194 -6.588122
LeftToeBase 8.727898 -0.000000 -0.000000
Spine -8.542708 -3.913345 -2.429520
RightShoulder -17.417366 -11.014018 -25.983469
RightArm 16.987822 31.656802 45.771664
RightForeArm -7.834223 -0.000000 14.350331
RightHand 5.186629 -0.000000 8.767895
RightHandThumb1 -24.326973 -0.000000 -32.862282
LeftShoulder -21.669683 1.607095 28.127379
LeftArm 17.286696 -36.650822 -44.924541
LeftForeArm 4.985319 -0.000000 18.194142
LeftHand 1.668382 0.000000 19.684485
LeftHandThumb1 -26.253704 0.000000 33.147579
Head 7.233354 4.441770 -2.644738
133
root -3.214126 33.074546 -1.298571 6.527693 4.088229 3.078445
RightUpLeg -2.541107 -6.377308 -1.073423
RightLeg 10.046065 -0.000000 -0.000000
RightFoot -17.356439 -9.257026 1.813932
RightToeBase 2.265729 -0.000000 -0.000000
LeftUpLeg -1.872194 -4.799580 -5.158375
LeftLeg 5.222075 -0.000000 -0.000000
LeftFoot -13.146633 5.600999 -6.503948
LeftToeBase 8.677082 -0.000000 -0.000000
Spine -8.493650 -3.903819 -2.425209
RightShoulder -17.321438 -10.974256 -25.988556
RightArm 17.051833 31.573565 45.831240
RightForeArm -7.814502 -0.000000 14.439902
RightHand 5.229136 -0.000000 8.872530
RightHandThumb1 -24.326973 -0.000000 -32.862282
LeftShoulder -21.738544 1.758951 28.073160
LeftArm 17.487802 -36.748729 -45.146323
LeftForeArm 4.881081 -0.000000 18.260389
LeftHand 1.864754 0.000000 20.282779
LeftHandThumb1 -26.253704 0.000000 33.147579
Head 7.277912 4.454025 -2.611377
134
root -3.169714 33.073834 -1.304095 6.504052 4.068929 3.066752
RightUpLeg -2.744791 -6.329084 -1.134202
RightLeg 10.496345 -0.000000 -0.000000
RightFoot -17.490579 -9.314100 1.926693
RightToeBase 2.185040 -0.000000 -0.000000
LeftUpLeg -1.859330 -4.735930 -5.230045
LeftLeg 5.236361 -0.000000 -0.000000
LeftFoot -13.138635 5.573286 -6.397381
LeftToeBase 8.634233 -0.000000 -0.000000
Spine -8.425318 -3.862108 -2.466164
RightShoulder -17.297700 -11.002480 -25.961643
RightArm 17.178464 31.443687 45.909696
RightForeArm -7.774173 -0.000000 14.525645
RightHand 5.034132 -0.000000 8.941922
RightHandThumb1 -24.326973 -0.000000 -32.862282
LeftShoulder -21.707450 1.734726 28.108763
LeftArm 17.435921 -36.784421 -45.241983
LeftForeArm 4.883020 -0.000000 18.453889
LeftHand 1.745592 -0.000000 20.954915
LeftHandThumb1 -26.253704 0.000000 33.147579
Head 7.334286 4.401550 -2.553829
135
root -3.125688 33.074221 -1.311733 6.494251 4.069662 3.039290
RightUpLeg -2.985860 -6.272563 -1.177326
RightLeg 10.990375 -0.000000 -0.000000
RightFoot -17.626066 -9.367886 2.086779
RightToeBase 2.147132 -0.000000 -0.000000
LeftUpLeg -1.884434 -4.649454 -5.280457
LeftLeg 5.288092 -0.000000 -0.000000
LeftFoot -13.136454 5.495661 -6.269554
LeftToeBase 8.540310 -0.000000 -0.000000
Spine -8.364910 -3.865752 -2.464767
RightShoulder -17.241200 -10.939418 -25.948716
RightArm 17.222635 31.317699 45.907004
RightForeArm -7.861228 -0.000000 14.590748
RightHand 5.227188 -0.000000 8.869066
RightHandThumb1 -24.326973 -0.000000 -32.862282
LeftShoulder -21.740333 1.776232 28.077374
LeftArm 17.524140 -36.826857 -45.384975
LeftForeArm 4.898855 -0.000000 18.570163
LeftHand 1.582961 0.000000 21.580783
LeftHandThumb1 -26.253704 0.000000 33.147579
Head 7.389347 4.403505 -2.527706
136
root -3.084129 33.073404 -1.317000 6.479474 4.078442 2.983764
RightUpLeg -3.169109 -6.226627 -1.200742
RightLeg 11.389705 -0.000000 -0.000000
RightFoot -17.707308 -9.355044 2.233610
RightToeBase 2.008616 -0.000000 -0.000000
LeftUpLeg -1.925666 -4.478286 -5.304076
LeftLeg 5.390222 -0.000000 -0.000000
LeftFoot -13.188181 5.364508 -6.093537
LeftToeBase 8.560380 -0.000000 -0.000000
Spine -8.312405 -3.870778 -2.432331
RightShoulder -17.183185 -10.920568 -25.961990
RightArm 17.292370 31.246430 45.970090
RightForeArm -7.908569 -0.000000 14.668200
RightHand 5.303603 -0.000000 8.967544
RightHandThumb1 -24.326973 -0.000000 -32.862282
LeftShoulder -21.725559 1.788887 28.063354
LeftArm 17.503433 -36.848661 -45.449449
LeftForeArm 4.881190 0.000000 18.705858
LeftHand 1.648723 -0.000000 22.249201
LeftHandThumb1 -26.253704 0.000000 33.147579
Head 7.434383 4.382754 -2.503010
137
root -3.038896 33.073239 -1.324416 6.482205 4.076452 2.956162
RightUpLeg -3.409057 -6.211767 -1.250052
RightLeg 11.867110 -0.000000 -0.000000
RightFoot -17.829163 -9.353335 2.377374
RightToeBase 1.859274 -0.000000 -0.000000
LeftUpLeg -1.930708 -4.634333 -5.359879
LeftLeg 5.380827 -0.000000 -0.000000
LeftFoot -13.187453 5.526526 -5.983286
LeftToeBase 8.436868 -0.000000 -0.000000
Spine -8.273450 -3.876442 -2.436546
RightShoulder -17.101311 -10.847216 -25.974442
RightArm 17.295742 31.161591 45.983419
RightForeArm -7.980128 -0.000000 14.755348
RightHand 5.241161 -0.000000 9.095583
RightHandThumb1 -24.326973 -0.000000 -32.862282
LeftShoulder -21.746890 1.870335 28.057881
LeftArm 17.582538 -36.945584 -45.653295
LeftForeArm 4.881262 -0.000000 18.891358
LeftHand 1.693450 -0.000000 23.081556
LeftHandThumb1 -26.253704 0.000000 33.147579
Head 7.496210 4.343238 -2.465243
138
root -2.993686 33.072874 -1.331158 6.479166 4.061200 2.920241
RightUpLeg -3.631228 -6.213147 -1.308721
RightLeg 12.316591 -0.000000 -0.000000
RightFoot -17.942415 -9.237434 2.540667
RightToeBase 1.795273 -0.000000 -0.000000
LeftUpLeg -1.727341 -5.830619 -5.412532
LeftLeg 4.970993 -0.000000 -0.000000
LeftFoot -13.173053 6.634471 -6.262607
LeftToeBase 8.463083 -0.000000 -0.000000
Spine -8.231156 -3.858342 -2.427964
RightShoulder -17.058321 -10.860921 -25.955504
RightArm 17.396184 31.052569 46.003311
RightForeArm -7.884539 -0.000000 14.799798
RightHand 5.270681 -0.000000 9.089981
RightHandThumb1 -24.326973 -0.000000 -32.862282
LeftShoulder -21.738335 1.908975 28.032018
LeftArm 17.607062 -36.946997 -45.742626
LeftForeArm 4.893116 -0.000000 19.015689
LeftHand 1.441602 -0.000000 23.531878
LeftHandThumb1 -26.253704 0.000000 33.147579
Head 7.551501 4.356376 -2.434228
